# xmcd
#
# Track frame offsets:
#   150
#   19964
#   41378
#   58890
#   75203
#   93091
#   112250
#   137343
#   152936
#   175944
#   196146
#   218659
#   235911
#   256271
#   280611
#   296440
#   314533
#
# Disc length: 4427 seconds
#
# Revision: 0
# Processed by: cddbd v1.4PL0 Copyright (c) Steve Scherf et al.
# Submitted via: uFREEDB 1.6.0
#
DISCID=e4114911
DTITLE=Cristian Castro - Recopilaciones
DYEAR=2000
DGENRE=Alternative
TTITLE0=Azul
TTITLE1=Volver a amar
TTITLE2=Nuestro amor
TTITLE3=Mi vida sin tu amor
TTITLE4=Lo mejor de mi
TTITLE5=Vuelveme a querer
TTITLE6=despues de ti
TTITLE7=Amarte a ti
TTITLE8=Nunca voy a olvidarte
TTITLE9=Lloran las rosas
TTITLE10=Amor
TTITLE11=Por amor a ti
TTITLE12=Nunca jamas
TTITLE13=Una y mil veces
TTITLE14=El deseo de oir tu voz
TTITLE15=No puedo arrancarte de mi
TTITLE16=Con tu amor
EXTD=
EXTT0=
EXTT1=
EXTT2=
EXTT3=
EXTT4=
EXTT5=
EXTT6=
EXTT7=
EXTT8=
EXTT9=
EXTT10=
EXTT11=
EXTT12=
EXTT13=
EXTT14=
EXTT15=
EXTT16=
PLAYORDER=
